<svg id="visual" viewBox="0 0 900 400" width="900" height="400" xmlns="http://www.w3.org/2000/svg" xmlns:xlink="http://www.w3.org/1999/xlink" version="1.1"><path d="M0 256L21.5 240C43 224 86 192 128.8 180.5C171.7 169 214.3 178 257.2 189.8C300 201.7 343 216.3 385.8 211.2C428.7 206 471.3 181 514.2 180.2C557 179.3 600 202.7 642.8 224.8C685.7 247 728.3 268 771.2 275.2C814 282.3 857 275.7 878.5 272.3L900 269L900 0L878.5 0C857 0 814 0 771.2 0C728.3 0 685.7 0 642.8 0C600 0 557 0 514.2 0C471.3 0 428.7 0 385.8 0C343 0 300 0 257.2 0C214.3 0 171.7 0 128.8 0C86 0 43 0 21.5 0L0 0Z" fill="#000000" stroke-linecap="round" stroke-linejoin="miter"></path></svg>